<?xml version="1.0" encoding="utf-8"?>
<!-- Generator: Adobe Illustrator 21.1.0, SVG Export Plug-In . SVG Version: 6.00 Build 0)  -->
<svg version="1.1" id="Layer_1" xmlns="http://www.w3.org/2000/svg" xmlns:xlink="http://www.w3.org/1999/xlink" x="0px" y="0px"
	 viewBox="0 0 140 105" style="enable-background:new 0 0 140 105;" xml:space="preserve">
<style type="text/css">
	.st0{fill:#F9A04D;}
	.st1{fill:#F37131;}
	.st2{fill:#FED195;}
	.st3{fill:#425F5D;}
	.st4{fill:#B21F24;}
	.st5{fill:#294949;}
</style>
<g id="XMLID_4_">
	<path id="XMLID_94_" class="st0" d="M11.5,0h117.1c6.3,0,11.5,5.2,11.5,11.5v82.1c0,6.3-5.2,11.5-11.5,11.5H11.5
		C5.2,105,0,99.8,0,93.5V11.5C0,5.2,5.2,0,11.5,0L11.5,0z"/>
	<path id="XMLID_93_" class="st1" d="M140,52.5v41c0,6.3-5.2,11.5-11.5,11.5H11.5C5.2,105,0,99.8,0,93.5v-41H140z"/>
	<path id="XMLID_24_" class="st2" d="M38.2,28.3c6.2,0,11.3,5,11.3,11.3c0,6.2-5,11.3-11.3,11.3c-6.2,0-11.3-5-11.3-11.3
		C26.9,33.3,31.9,28.3,38.2,28.3L38.2,28.3z"/>
	<path id="XMLID_23_" class="st3" d="M21.8,76.7V63.8c0-7.1,5.8-12.9,12.9-12.9h6.9c7.1,0,12.9,5.8,12.9,12.9v12.9H21.8L21.8,76.7z"
		/>
	<path id="XMLID_10_" class="st4" d="M36.1,5.8L39.2,0h6.2L41,8.3c-0.5,0.9-1.4,1.5-2.4,1.5c-0.4,0-0.9-0.1-1.3-0.3
		C35.9,8.8,35.4,7.1,36.1,5.8z M76,9.5c0.4,0.2,0.8,0.3,1.3,0.3c1,0,1.9-0.5,2.4-1.5L84.1,0h-6.2l-3.1,5.8C74.1,7.1,74.6,8.8,76,9.5
		z M56.6,9.5c0.4,0.2,0.8,0.3,1.3,0.3c1,0,1.9-0.5,2.4-1.5L64.7,0h-6.2l-3.1,5.8C54.8,7.1,55.3,8.8,56.6,9.5z M122.1,95.5
		c-1.3-0.7-3-0.2-3.7,1.1L114,105h6.2l3.1-5.8C124,97.9,123.4,96.2,122.1,95.5z M17.9,9.5c0.4,0.2,0.8,0.3,1.3,0.3
		c1,0,1.9-0.5,2.4-1.5L26,0h-6.2l-3.1,5.8C16,7.1,16.6,8.8,17.9,9.5z M95.3,9.5c0.4,0.2,0.8,0.3,1.3,0.3c1,0,1.9-0.5,2.4-1.5
		l4.4-8.3h-6.2l-3.1,5.8C93.5,7.1,94,8.8,95.3,9.5z M64,95.5c-1.3-0.7-3-0.2-3.7,1.1l-4.4,8.3h6.2l3.1-5.8
		C65.9,97.9,65.4,96.2,64,95.5z M25.3,95.5c-1.3-0.7-3-0.2-3.7,1.1l-4.4,8.3h6.2l3.1-5.8C27.2,97.9,26.6,96.2,25.3,95.5z
		 M102.7,95.5c-1.3-0.7-3-0.2-3.7,1.1l-4.4,8.3h6.2l3.1-5.8C104.6,97.9,104.1,96.2,102.7,95.5z M114.7,9.5c0.4,0.2,0.8,0.3,1.3,0.3
		c1,0,1.9-0.5,2.4-1.5l4.4-8.3h-6.2l-3.1,5.8C112.8,7.1,113.4,8.8,114.7,9.5z M44.7,95.5c-1.3-0.7-3-0.2-3.7,1.1l-4.4,8.3h6.2
		l3.1-5.8C46.5,97.9,46,96.2,44.7,95.5z M83.4,95.5c-1.3-0.7-3-0.2-3.7,1.1l-4.4,8.3h6.2l3.1-5.8C85.2,97.9,84.7,96.2,83.4,95.5z"/>
	<path id="XMLID_5_" class="st5" d="M74.4,36.8c0-1.5,1.2-2.7,2.7-2.7h19.2c1.5,0,2.7,1.2,2.7,2.7c0,1.5-1.2,2.7-2.7,2.7H77.1
		C75.6,39.5,74.4,38.3,74.4,36.8z M77.1,56.7h41.7c1.5,0,2.7-1.2,2.7-2.7c0-1.5-1.2-2.7-2.7-2.7H77.1c-1.5,0-2.7,1.2-2.7,2.7
		C74.4,55.5,75.6,56.7,77.1,56.7z M118.9,65.3H77.1c-1.5,0-2.7,1.2-2.7,2.7c0,1.5,1.2,2.7,2.7,2.7h41.7c1.5,0,2.7-1.2,2.7-2.7
		C121.6,66.5,120.4,65.3,118.9,65.3z M41.6,50.8h-3.5v25.9h16.4V63.8C54.6,56.6,48.7,50.8,41.6,50.8z"/>
</g>
</svg>
